# xmcd CD database file
#
# Track frame offsets:
#	150
#	11652
#	24067
#	34942
#	47570
#	60215
#	70985
#	82617
#	96928
#	108741
#	121890
#	133744
#	144200
#	157038
#	169243
#	181754
#	194755
#	204701
#	215195
#	225114
#	235040
#	245148
#	253895
#	264442
#	275062
#	286598
#
# Disc length: 3970 seconds
#
# Revision: 0
# Processed by: cddbd v1.5.2PL0 Copyright (c) Steve Scherf et al.
# Submitted via: CDex 1.51
#
DISCID=700f801a
DTITLE=The Jones Boys - Neal Jones and Oakie Jones
DYEAR=1900
DGENRE=Country
TTITLE0=Oakie Jones/Hillbilly Bessie
TTITLE1=Oakie Jones/Send Me A Penny Postcard
TTITLE2=Oakie Jones/Love Fever
TTITLE3=Oakie Jones/My Heart Went Blind
TTITLE4=Oakie Jones/Trade Winds Never Lie
TTITLE5=Oakie Jones/The Monterry Waltz
TTITLE6=Oakie Jones/One At A Time
TTITLE7=Oakie Jones/You're Just Imagination
TTITLE8=Oakie Jones/Is It Fair
TTITLE9=Oakie Jones/Warm, Warm Kisses
TTITLE10=Oakie Jones/I Bet It's 'Cause (I Love You So)
TTITLE11=Oakie Jones/Foolish Heart
TTITLE12=Neal Jones/Walkin', Plowin', Talkin', Cryin'
TTITLE13=Neal Jones/Foolin' Women
TTITLE14=Neal Jones/Maybe Next Week Sometime
TTITLE15=Neal Jones/Who-o-o-ee! My Life Has Just Begun
TTITLE16=Neal Jones/Down Boy
TTITLE17=Neal Jones/High Steppin' Baby
TTITLE18=Neal Jones/I'm Playing It Cool
TTITLE19=Neal Jones/Hot Jing Jolly (I've Got Me A Girl)
TTITLE20=Neal Jones/Before My Time
TTITLE21=Neal Jones/You Can't Unkiss That Kiss
TTITLE22=Neal Jones/Two Wrongs
TTITLE23=Neal Jones/What This Old World Needs
TTITLE24=Neal Jones/Woman Of Sin
TTITLE25=Neal Jones/Woman Behind This Man
EXTD=
EXTT0=
EXTT1=
EXTT2=
EXTT3=
EXTT4=
EXTT5=
EXTT6=
EXTT7=
EXTT8=
EXTT9=
EXTT10=
EXTT11=
EXTT12=
EXTT13=
EXTT14=
EXTT15=
EXTT16=
EXTT17=
EXTT18=
EXTT19=
EXTT20=
EXTT21=
EXTT22=
EXTT23=
EXTT24=
EXTT25=
PLAYORDER=
